<?xml version="1.0" encoding="UTF-8"?>
<svg version="1.1" xmlns="http://www.w3.org/2000/svg" width="986" height="980">
<path d="M0 0 C1.20185944 -0.00100708 2.40371887 -0.00201416 3.64199829 -0.00305176 C23.03111109 0.00791831 42.01746809 0.73875429 61.25 3.25 C62.42900879 3.39985352 63.60801758 3.54970703 64.82275391 3.70410156 C139.25467275 13.37378403 211.86559299 39.19499272 274.25 81.25 C274.91547852 81.69553223 275.58095703 82.14106445 276.26660156 82.60009766 C290.45088182 92.116784 304.18808761 102.2359298 317.25 113.25 C317.78302734 113.69811035 318.31605469 114.1462207 318.86523438 114.60791016 C331.37479643 125.14546884 343.29014956 136.19854845 354.89556885 147.72033691 C355.94787782 148.76459955 357.00166221 149.80737794 358.05706787 150.84851074 C364.20221491 156.91930054 369.95732393 163.08336658 375.328125 169.8605957 C377.14228916 172.11608664 379.03320654 174.25247802 381 176.375 C387.20677426 183.2946315 392.6945689 190.80661528 398.25 198.25 C399.05727539 199.32797852 399.05727539 199.32797852 399.88085938 200.42773438 C424.00994704 232.78598714 444.54007434 268.62825073 459.25 306.25 C459.60513672 307.15363281 459.96027344 308.05726563 460.32617188 308.98828125 C480.64252553 361.0291317 494.2459895 416.88480311 494.453125 472.9921875 C494.46013931 474.26654663 494.46715363 475.54090576 494.47438049 476.85388184 C494.49378297 480.94425964 494.49881436 485.03458082 494.5 489.125 C494.50044186 489.8214991 494.50088371 490.5179982 494.50133896 491.23560333 C494.50816119 511.73141682 494.22182979 531.9255836 491.25 552.25 C490.98661801 554.1933387 490.72324744 556.13667897 490.46031189 558.08007812 C483.16378467 611.38274846 467.18778806 663.39167881 442.33056641 711.16699219 C441.10767852 713.52435312 439.90398112 715.89113963 438.69921875 718.2578125 C423.80592894 747.3190609 405.53978146 774.3887389 384.68994141 799.50585938 C382.66245602 801.96166737 380.67994304 804.45322868 378.6875 806.9375 C371.59542012 815.59400927 363.89340234 823.71897573 355.91015625 831.5546875 C354.03908536 833.414408 354.03908536 833.414408 351.75 836.3125 C349.17309271 839.34036607 346.42984131 841.77170038 343.41015625 844.33984375 C341.14348004 846.34419215 339.04636736 848.4557715 336.9375 850.625 C332.91420679 854.69643518 328.64994714 858.30458461 324.18359375 861.87890625 C321.63544728 863.93846006 319.14115564 866.04739039 316.66064453 868.1875 C291.77153734 889.60140952 263.73585002 907.50504189 234.79833984 922.88769531 C232.50714671 924.11253318 230.22987181 925.35873011 227.95703125 926.6171875 C179.94783179 953.00020335 124.49124855 968.90311949 70.4375 976.5 C69.36773926 976.65106201 68.29797852 976.80212402 67.19580078 976.95776367 C63.55196093 977.43895897 59.90470963 977.86214419 56.25 978.25 C55.43460754 978.33720306 54.61921509 978.42440613 53.77911377 978.51425171 C37.10983998 980.23711091 20.52239853 980.61484682 3.77213287 980.56805801 C1.71720806 980.56240987 -0.33770847 980.55959438 -2.39263916 980.55697632 C-22.33114249 980.52005657 -41.97833888 980.06042195 -61.75 977.25 C-63.03181152 977.07839355 -64.31362305 976.90678711 -65.63427734 976.72998047 C-122.79803632 969.04310639 -176.2639214 950.92549312 -227.75 925.25 C-228.59675293 924.8286377 -229.44350586 924.40727539 -230.31591797 923.97314453 C-248.97382187 914.60966347 -266.81912172 903.44539102 -283.75 891.25 C-284.52359863 890.69280273 -285.29719727 890.13560547 -286.09423828 889.56152344 C-295.54204581 882.72805096 -304.8647721 875.80635217 -313.75 868.25 C-314.28399414 867.79947266 -314.81798828 867.34894531 -315.36816406 866.88476562 C-317.14468487 865.38548215 -318.91691777 863.88129092 -320.6875 862.375 C-321.21255127 861.92946777 -321.73760254 861.48393555 -322.27856445 861.02490234 C-332.33580687 852.40268068 -341.90583664 843.28084165 -351.26928711 833.91601562 C-352.9417165 832.24578905 -354.62203669 830.58377621 -356.30273438 828.921875 C-362.16618786 823.08816831 -367.67052376 817.17563759 -372.79833984 810.67529297 C-374.83461633 808.14484881 -376.98157957 805.75817962 -379.1875 803.375 C-384.41566422 797.61408675 -389.11975212 791.49237941 -393.75 785.25 C-394.2557959 784.56873047 -394.7615918 783.88746094 -395.28271484 783.18554688 C-449.58865202 709.71961542 -482.50046895 623.2802925 -490.75 532.25 C-490.84571289 531.27643555 -490.94142578 530.30287109 -491.04003906 529.29980469 C-492.1289218 516.68984011 -491.99293199 504.02205227 -492 491.375 C-492.00100708 490.12667389 -492.00201416 488.87834778 -492.00305176 487.5921936 C-491.99251878 468.27517359 -491.33554611 449.40566817 -488.75 430.25 C-488.5331958 428.54118652 -488.5331958 428.54118652 -488.31201172 426.79785156 C-478.89928855 353.22642287 -452.68969388 279.11483213 -409.75 218.25 C-408.77544095 216.84546871 -407.80151594 215.44049733 -406.828125 214.03515625 C-400.71214719 205.24618287 -394.40964125 196.63692572 -387.75 188.25 C-387.24855469 187.61707031 -386.74710937 186.98414063 -386.23046875 186.33203125 C-379.87234108 178.33409449 -373.37478817 170.54601246 -366.3828125 163.09375 C-364.38764647 160.93873388 -362.46291259 158.76155703 -360.55078125 156.53515625 C-356.19200313 151.53260195 -351.51298663 146.86682915 -346.8125 142.1875 C-345.52956055 140.89875977 -345.52956055 140.89875977 -344.22070312 139.58398438 C-339.2253022 134.59620419 -334.11534589 129.83495742 -328.75 125.25 C-327.55846061 124.20475885 -326.36833115 123.157908 -325.1796875 122.109375 C-316.91688974 114.86504186 -308.50524543 107.89123257 -299.75 101.25 C-299.02796387 100.7019873 -298.30592773 100.15397461 -297.56201172 99.58935547 C-286.59407586 91.30385807 -275.3989528 83.5437002 -263.75 76.25 C-262.10837891 75.20779297 -262.10837891 75.20779297 -260.43359375 74.14453125 C-251.40585846 68.48383616 -242.11205012 63.33070466 -232.75 58.25 C-231.94030762 57.8075293 -231.13061523 57.36505859 -230.29638672 56.90917969 C-170.99454116 24.62197271 -105.63928936 7.67845142 -38.75 1.25 C-37.74259766 1.14397461 -36.73519531 1.03794922 -35.69726562 0.92871094 C-23.84257932 -0.18191951 -11.89528333 0.00690329 0 0 Z " fill="#0F3442" transform="translate(491.75,-0.25)"/>
<path d="M0 0 C1.20185944 -0.00100708 2.40371887 -0.00201416 3.64199829 -0.00305176 C23.03111109 0.00791831 42.01746809 0.73875429 61.25 3.25 C62.42900879 3.39985352 63.60801758 3.54970703 64.82275391 3.70410156 C139.25467275 13.37378403 211.86559299 39.19499272 274.25 81.25 C274.91547852 81.69553223 275.58095703 82.14106445 276.26660156 82.60009766 C290.45088182 92.116784 304.18808761 102.2359298 317.25 113.25 C317.78302734 113.69811035 318.31605469 114.1462207 318.86523438 114.60791016 C331.37479643 125.14546884 343.29014956 136.19854845 354.89556885 147.72033691 C355.94787782 148.76459955 357.00166221 149.80737794 358.05706787 150.84851074 C364.20221491 156.91930054 369.95732393 163.08336658 375.328125 169.8605957 C377.14228916 172.11608664 379.03320654 174.25247802 381 176.375 C387.20677426 183.2946315 392.6945689 190.80661528 398.25 198.25 C399.05727539 199.32797852 399.05727539 199.32797852 399.88085938 200.42773438 C424.00994704 232.78598714 444.54007434 268.62825073 459.25 306.25 C459.60513672 307.15363281 459.96027344 308.05726563 460.32617188 308.98828125 C480.64252553 361.0291317 494.2459895 416.88480311 494.453125 472.9921875 C494.46013931 474.26654663 494.46715363 475.54090576 494.47438049 476.85388184 C494.49378297 480.94425964 494.49881436 485.03458082 494.5 489.125 C494.50044186 489.8214991 494.50088371 490.5179982 494.50133896 491.23560333 C494.50816119 511.73141682 494.22182979 531.9255836 491.25 552.25 C490.98661801 554.1933387 490.72324744 556.13667897 490.46031189 558.08007812 C483.16378467 611.38274846 467.18778806 663.39167881 442.33056641 711.16699219 C441.10767852 713.52435312 439.90398112 715.89113963 438.69921875 718.2578125 C423.80592894 747.3190609 405.53978146 774.3887389 384.68994141 799.50585938 C382.66245602 801.96166737 380.67994304 804.45322868 378.6875 806.9375 C371.59542012 815.59400927 363.89340234 823.71897573 355.91015625 831.5546875 C354.03908536 833.414408 354.03908536 833.414408 351.75 836.3125 C349.17309271 839.34036607 346.42984131 841.77170038 343.41015625 844.33984375 C341.14348004 846.34419215 339.04636736 848.4557715 336.9375 850.625 C332.91420679 854.69643518 328.64994714 858.30458461 324.18359375 861.87890625 C321.63544728 863.93846006 319.14115564 866.04739039 316.66064453 868.1875 C291.77153734 889.60140952 263.73585002 907.50504189 234.79833984 922.88769531 C232.50714671 924.11253318 230.22987181 925.35873011 227.95703125 926.6171875 C179.94783179 953.00020335 124.49124855 968.90311949 70.4375 976.5 C69.36773926 976.65106201 68.29797852 976.80212402 67.19580078 976.95776367 C63.55196093 977.43895897 59.90470963 977.86214419 56.25 978.25 C55.43460754 978.33720306 54.61921509 978.42440613 53.77911377 978.51425171 C37.10983998 980.23711091 20.52239853 980.61484682 3.77213287 980.56805801 C1.71720806 980.56240987 -0.33770847 980.55959438 -2.39263916 980.55697632 C-22.33114249 980.52005657 -41.97833888 980.06042195 -61.75 977.25 C-63.03181152 977.07839355 -64.31362305 976.90678711 -65.63427734 976.72998047 C-122.79803632 969.04310639 -176.2639214 950.92549312 -227.75 925.25 C-228.59675293 924.8286377 -229.44350586 924.40727539 -230.31591797 923.97314453 C-248.97382187 914.60966347 -266.81912172 903.44539102 -283.75 891.25 C-284.52359863 890.69280273 -285.29719727 890.13560547 -286.09423828 889.56152344 C-295.54204581 882.72805096 -304.8647721 875.80635217 -313.75 868.25 C-314.28399414 867.79947266 -314.81798828 867.34894531 -315.36816406 866.88476562 C-317.14468487 865.38548215 -318.91691777 863.88129092 -320.6875 862.375 C-321.21255127 861.92946777 -321.73760254 861.48393555 -322.27856445 861.02490234 C-332.33580687 852.40268068 -341.90583664 843.28084165 -351.26928711 833.91601562 C-352.9417165 832.24578905 -354.62203669 830.58377621 -356.30273438 828.921875 C-362.16618786 823.08816831 -367.67052376 817.17563759 -372.79833984 810.67529297 C-374.83461633 808.14484881 -376.98157957 805.75817962 -379.1875 803.375 C-384.41566422 797.61408675 -389.11975212 791.49237941 -393.75 785.25 C-394.2557959 784.56873047 -394.7615918 783.88746094 -395.28271484 783.18554688 C-449.58865202 709.71961542 -482.50046895 623.2802925 -490.75 532.25 C-490.84571289 531.27643555 -490.94142578 530.30287109 -491.04003906 529.29980469 C-492.1289218 516.68984011 -491.99293199 504.02205227 -492 491.375 C-492.00100708 490.12667389 -492.00201416 488.87834778 -492.00305176 487.5921936 C-491.99251878 468.27517359 -491.33554611 449.40566817 -488.75 430.25 C-488.5331958 428.54118652 -488.5331958 428.54118652 -488.31201172 426.79785156 C-478.89928855 353.22642287 -452.68969388 279.11483213 -409.75 218.25 C-408.77544095 216.84546871 -407.80151594 215.44049733 -406.828125 214.03515625 C-400.71214719 205.24618287 -394.40964125 196.63692572 -387.75 188.25 C-387.24855469 187.61707031 -386.74710937 186.98414063 -386.23046875 186.33203125 C-379.87234108 178.33409449 -373.37478817 170.54601246 -366.3828125 163.09375 C-364.38764647 160.93873388 -362.46291259 158.76155703 -360.55078125 156.53515625 C-356.19200313 151.53260195 -351.51298663 146.86682915 -346.8125 142.1875 C-345.52956055 140.89875977 -345.52956055 140.89875977 -344.22070312 139.58398438 C-339.2253022 134.59620419 -334.11534589 129.83495742 -328.75 125.25 C-327.55846061 124.20475885 -326.36833115 123.157908 -325.1796875 122.109375 C-316.91688974 114.86504186 -308.50524543 107.89123257 -299.75 101.25 C-299.02796387 100.7019873 -298.30592773 100.15397461 -297.56201172 99.58935547 C-286.59407586 91.30385807 -275.3989528 83.5437002 -263.75 76.25 C-262.10837891 75.20779297 -262.10837891 75.20779297 -260.43359375 74.14453125 C-251.40585846 68.48383616 -242.11205012 63.33070466 -232.75 58.25 C-231.94030762 57.8075293 -231.13061523 57.36505859 -230.29638672 56.90917969 C-170.99454116 24.62197271 -105.63928936 7.67845142 -38.75 1.25 C-37.74259766 1.14397461 -36.73519531 1.03794922 -35.69726562 0.92871094 C-23.84257932 -0.18191951 -11.89528333 0.00690329 0 0 Z M-55.75 62.25 C-56.97074219 62.42160645 -58.19148438 62.59321289 -59.44921875 62.77001953 C-125.0177819 72.19592166 -187.87291839 96.11162035 -242.75 133.25 C-243.8011499 133.9610791 -243.8011499 133.9610791 -244.87353516 134.68652344 C-254.99207749 141.57956456 -264.58875147 148.97465222 -273.99853516 156.80273438 C-276.41107287 158.79625592 -278.86591065 160.73601071 -281.3125 162.6875 C-297.96097188 176.36744792 -314.6371525 191.87011005 -327.875 208.8828125 C-329.7690249 211.27401894 -331.7848866 213.46675451 -333.875 215.6875 C-352.84667502 236.57951908 -368.05531149 261.55025095 -381.61767578 286.19384766 C-382.35717982 287.53669005 -383.10019434 288.87760686 -383.84716797 290.21630859 C-406.91058335 331.64753163 -421.0657539 377.89066475 -428.5 424.5625 C-428.69875732 425.7995166 -428.89751465 427.0365332 -429.10229492 428.31103516 C-432.2189086 448.77408199 -433.12612179 469.06646879 -433.0625 489.75 C-433.06067719 490.98256531 -433.05885437 492.21513062 -433.05697632 493.48504639 C-433.01108881 511.93242355 -432.4875413 529.9819195 -429.75 548.25 C-429.57839355 549.46042969 -429.40678711 550.67085937 -429.22998047 551.91796875 C-425.63669381 576.91362857 -419.84749497 601.33330476 -411.75 625.25 C-411.48751465 626.04245117 -411.2250293 626.83490234 -410.95458984 627.65136719 C-406.58264446 640.83245625 -401.48218581 653.60269169 -395.75 666.25 C-395.31059082 667.22066406 -394.87118164 668.19132813 -394.41845703 669.19140625 C-383.84713809 692.32666126 -371.40121114 714.44599562 -356.75 735.25 C-356.29705566 735.89437012 -355.84411133 736.53874023 -355.37744141 737.20263672 C-346.26047438 750.08309822 -336.40403446 762.45972203 -325.73046875 774.0859375 C-323.84159671 776.14991208 -322.0105374 778.25290254 -320.1875 780.375 C-317.1235209 783.90213874 -313.85047324 787.17169074 -310.51953125 790.4453125 C-308.75 792.25 -308.75 792.25 -306.75 794.8125 C-304.36473461 797.7195422 -301.66793641 800.00198071 -298.8125 802.4375 C-296.92431113 804.09681749 -295.18006635 805.81541186 -293.4375 807.625 C-289.76296859 811.35772535 -285.75513992 814.60386926 -281.67578125 817.8828125 C-278.82542658 820.18897396 -276.03915527 822.55794096 -273.25 824.9375 C-259.85080726 836.10060495 -245.55501577 846.05311103 -230.75 855.25 C-230.1430127 855.62930664 -229.53602539 856.00861328 -228.91064453 856.39941406 C-178.41500459 887.81215801 -123.18150117 907.05104707 -64.75 917.25 C-63.30028809 917.50523437 -63.30028809 917.50523437 -61.82128906 917.765625 C-37.40191248 921.92975243 -11.48760646 923.16463205 13.25 922.25 C14.42546387 922.20891113 15.60092773 922.16782227 16.81201172 922.12548828 C99.82734606 918.92590699 181.75722525 893.93005314 250.25 846.25 C251.83554688 845.15171875 251.83554688 845.15171875 253.453125 844.03125 C266.08383552 835.19194103 278.63135908 825.93635657 289.9140625 815.41015625 C291.9271615 813.54854463 293.97063616 811.74073635 296.0390625 809.94140625 C306.92204367 800.44567007 317.27733607 790.51132805 326.90478516 779.74365234 C328.19533931 778.31069221 329.50932917 776.89894427 330.82421875 775.48828125 C337.41572806 768.4000805 343.40404894 760.95347299 349.25 753.25 C350.06259277 752.18217285 350.06259277 752.18217285 350.89160156 751.09277344 C364.29338745 733.40486528 376.18806769 714.99363057 386.95117188 695.58935547 C388.08676047 693.54401525 389.23661306 691.50762281 390.390625 689.47265625 C439.0756277 601.50321032 449.72173892 494.37936506 423.05615234 372.56542969 C411.25982896 332.99033516 394.5513501 295.05416845 372.25 260.25 C371.25613281 258.69345703 371.25613281 258.69345703 370.2421875 257.10546875 C358.63358734 239.35256767 345.82817844 222.26195069 331.4453125 206.65625 C330.24053787 205.33571411 329.0434668 204.00738259 327.88476562 202.64624023 C322.62240159 196.48292985 316.94518582 190.75906629 311.21777344 185.0324707 C309.51205402 183.32456944 307.81450973 181.60881955 306.1171875 179.89257812 C299.46895499 173.21060191 292.6404922 167.11145123 285.25 161.25 C284.14796899 160.31545962 283.05163282 159.37409744 281.96484375 158.421875 C211.68441872 97.13655359 111.88400211 59.4330112 18.8203125 59.046875 C17.67931091 59.03986069 16.53830933 59.03284637 15.36273193 59.02561951 C11.70011394 59.00821742 8.03765782 59.00176691 4.375 59 C3.12156799 58.99932526 1.86813599 58.99865051 0.57672119 58.99795532 C-18.39065707 59.01417557 -36.95494915 59.51039148 -55.75 62.25 Z " fill="#057E78" transform="translate(491.75,-0.25)"/>
<path d="M0 0 C1.10004112 -0.00786278 1.10004112 -0.00786278 2.2223053 -0.0158844 C3.76790099 -0.02228572 5.31354551 -0.0209921 6.85913086 -0.01245117 C9.21231643 -0.00394363 11.56306968 -0.03271972 13.91601562 -0.06445312 C15.42317636 -0.06606555 16.93034136 -0.06548681 18.4375 -0.0625 C19.13455551 -0.07373398 19.83161102 -0.08496796 20.54978943 -0.09654236 C25.58755475 -0.02538133 28.45807664 1.19614839 32.28515625 4.43359375 C48.4142312 31.31538534 35.28515625 67.08430703 35.28515625 98.43359375 C103.59515625 98.43359375 171.90515625 98.43359375 242.28515625 98.43359375 C242.28515625 127.14359375 242.28515625 155.85359375 242.28515625 185.43359375 C220.80679688 185.50707031 220.80679688 185.50707031 198.89453125 185.58203125 C189.84374383 185.61740078 180.79296299 185.65326948 171.7421875 185.69140625 C157.36443555 185.75189554 142.98669605 185.81029899 128.60888672 185.85546875 C118.13890988 185.88837092 107.66898636 185.92819229 97.19906831 185.97638381 C91.65340285 186.00166643 86.10777284 186.02344252 80.56206512 186.03693771 C75.34513874 186.04974203 70.12833383 186.07177884 64.91147423 186.10097694 C62.99422453 186.11006548 61.07695527 186.11574591 59.15968513 186.11780739 C56.54664587 186.12112091 53.93395289 186.13657362 51.32098389 186.15512085 C50.55833654 186.15318612 49.7956892 186.15125138 49.00993133 186.14925802 C45.31380629 186.18861194 42.36163764 186.24966602 39.28515625 188.43359375 C38.13885058 190.72620509 38.15846307 192.01239831 38.15576172 194.56030273 C38.15260956 195.41136093 38.1494574 196.26241913 38.14620972 197.13926697 C38.14823395 198.06010574 38.15025818 198.98094452 38.15234375 199.9296875 C38.15138702 200.87417252 38.1504303 201.81865753 38.14944458 202.79176331 C38.14876332 204.79159614 38.15061383 206.79143117 38.15478516 208.79125977 C38.16012824 211.85503101 38.15484139 214.91865525 38.1484375 217.98242188 C38.14909841 219.92317741 38.15037983 221.86393285 38.15234375 223.8046875 C38.1493074 225.18290932 38.1493074 225.18290932 38.14620972 226.588974 C38.14936188 227.44318436 38.15251404 228.29739471 38.15576172 229.17749023 C38.15655731 229.92868637 38.15735291 230.67988251 38.15817261 231.45384216 C38.21433582 233.64588974 38.21433582 233.64588974 39.28515625 236.43359375 C42.34159412 237.96181269 45.53640857 237.58743198 48.89065552 237.59181213 C49.68457353 237.59675011 50.47849153 237.60168809 51.29646766 237.6067757 C53.97124318 237.62220041 56.64599461 237.63052474 59.32080078 237.63891602 C61.23240371 237.64849064 63.14400449 237.65850047 65.05560303 237.66891479 C70.2577844 237.69601502 75.45997489 237.71699683 80.66218805 237.73691678 C86.09413482 237.75874483 91.52605331 237.78614905 96.95797729 237.81297302 C107.24977534 237.86294302 117.54158904 237.90786584 127.83341777 237.95099539 C139.54789113 238.00033101 151.26233614 238.05526274 162.97678208 238.11067498 C187.07954835 238.22456113 211.18234061 238.33064685 235.28515625 238.43359375 C235.28515625 264.17359375 235.28515625 289.91359375 235.28515625 316.43359375 C229.45956055 316.4586499 223.63396484 316.48370605 217.63183594 316.50952148 C198.42126235 316.59285881 179.21071604 316.68151234 160.00017929 316.77293301 C148.34859982 316.82825084 136.69701729 316.8817305 125.04541016 316.9309082 C114.89187795 316.97376765 104.73836815 317.02005013 94.58487058 317.0704723 C89.20688409 317.09705901 83.828902 317.12191178 78.45088959 317.14266777 C73.39158802 317.16224774 68.33232906 317.18639569 63.27306557 317.21408463 C61.41386247 317.22344783 59.55465002 317.23112574 57.69543266 317.23701286 C55.1613085 317.24528641 52.6272874 317.25956668 50.09320068 317.27537537 C49.35389903 317.27635347 48.61459737 317.27733158 47.85289264 317.27833933 C42.95472295 317.21511977 42.95472295 317.21511977 38.28515625 318.43359375 C37.36657854 321.18932689 37.15879298 322.81883715 37.15576172 325.65795898 C37.15260956 326.50571396 37.1494574 327.35346893 37.14620972 328.22691345 C37.14823395 329.13945389 37.15025818 330.05199432 37.15234375 330.9921875 C37.15138702 331.93288589 37.1504303 332.87358429 37.14944458 333.8427887 C37.14876403 335.832449 37.15060959 337.82211154 37.15478516 339.81176758 C37.16012919 342.85568237 37.15483899 345.89944921 37.1484375 348.94335938 C37.14909842 350.87630241 37.15037987 352.80924535 37.15234375 354.7421875 C37.1493074 356.10796181 37.1493074 356.10796181 37.14620972 357.50132751 C37.14936188 358.35223465 37.15251404 359.20314178 37.15576172 360.07983398 C37.15655731 360.8257933 37.15735291 361.57175262 37.15817261 362.34031677 C37.29015333 364.51596863 37.57461001 366.37146308 38.28515625 368.43359375 C41.41616759 369.99909942 44.75637855 369.58750176 48.19436646 369.59181213 C49.02095288 369.59675011 49.84753931 369.60168809 50.69917381 369.6067757 C53.4845057 369.62220258 56.26981445 369.63052533 59.05517578 369.63891602 C61.04559535 369.64849046 63.03601287 369.65850028 65.02642822 369.66891479 C70.44347931 369.69601688 75.86053917 369.71699767 81.27762079 369.73691678 C86.93378462 369.75874369 92.58992129 369.78614846 98.24606323 369.81297302 C108.96285349 369.86294456 119.67965879 369.90786681 130.39647853 369.95099539 C142.5946179 370.00032969 154.79273002 370.05526191 166.99084306 370.11067498 C192.08892332 370.2245635 217.18702855 370.33064846 242.28515625 370.43359375 C242.28515625 398.81359375 242.28515625 427.19359375 242.28515625 456.43359375 C173.64515625 456.43359375 105.00515625 456.43359375 34.28515625 456.43359375 C34.52256268 490.67423416 34.52256268 490.67423416 34.82568359 524.91430664 C34.8527832 531.54772949 34.8527832 531.54772949 34.8578186 534.65647888 C34.86701177 536.82041328 34.88807269 538.98431758 34.91860962 541.14805603 C34.96263444 544.43265892 34.9685893 547.71538971 34.96630859 551.00024414 C34.98789724 551.95873544 35.00948589 552.91722673 35.03172874 553.90476322 C34.97706398 559.79969645 33.90162804 562.91027905 29.76902199 567.17148495 C25.0594317 571.17724855 16.99326386 569.74136088 11.08300781 569.78369141 C9.39146135 569.80022434 7.69998398 569.82747956 6.00878906 569.86572266 C3.56408626 569.9206974 1.12102025 569.94239679 -1.32421875 569.95703125 C-2.07443298 569.97970062 -2.82464722 570.00237 -3.59759521 570.02572632 C-7.48439508 570.01020807 -10.09270222 569.53562641 -13.11425781 567.15087891 C-16.58913317 563.52007129 -17.9674902 561.02922548 -17.95535278 556.0043335 C-17.95947678 554.68347748 -17.95947678 554.68347748 -17.96368408 553.3359375 C-17.95649353 552.3778418 -17.94930298 551.41974609 -17.94189453 550.43261719 C-17.94218658 549.41766174 -17.94247864 548.4027063 -17.94277954 547.35699463 C-17.94138621 544.00223237 -17.92582464 540.64769221 -17.91015625 537.29296875 C-17.90642614 534.96698121 -17.90357916 532.64099211 -17.90158081 530.31500244 C-17.89394424 524.19278628 -17.87429545 518.070665 -17.85217285 511.94848633 C-17.831715 505.70134769 -17.82257922 499.45419373 -17.8125 493.20703125 C-17.79104966 480.94917706 -17.75691334 468.6913933 -17.71484375 456.43359375 C-18.98234797 456.43912451 -18.98234797 456.43912451 -20.27545834 456.444767 C-40.9023748 456.53337238 -61.52925815 456.59942656 -82.15632534 456.64084244 C-92.13171186 456.66140677 -102.1069708 456.6894092 -112.08227539 456.73535156 C-120.78379647 456.77540803 -129.48522509 456.80107102 -138.18683583 456.80994773 C-142.78791167 456.81513085 -147.38872314 456.82718291 -151.98971367 456.85651398 C-156.33423005 456.88398152 -160.67837713 456.89197661 -165.02297211 456.88602448 C-166.60422089 456.88711089 -168.18548408 456.89487606 -169.76665688 456.91041565 C-195.65649285 457.15203912 -219.18460848 448.21696858 -237.93359375 430.17578125 C-239.3103125 428.81839844 -239.3103125 428.81839844 -240.71484375 427.43359375 C-241.813125 426.35464844 -241.813125 426.35464844 -242.93359375 425.25390625 C-261.31812547 405.92096615 -267.19920024 380.42521227 -267.10302734 354.54907227 C-267.1071017 352.68959242 -267.11244838 350.830115 -267.11895752 348.97064209 C-267.13253522 343.96023182 -267.12737198 338.95000864 -267.11782026 333.93959546 C-267.1101727 328.6709021 -267.11728343 323.40222372 -267.12197876 318.13352966 C-267.12742204 309.2881282 -267.1202828 300.44280211 -267.10595703 291.59741211 C-267.08963837 281.40449686 -267.09491916 271.21176174 -267.11143625 261.01885086 C-267.12509798 252.23282865 -267.1269478 243.44686033 -267.11912024 234.66083091 C-267.11446875 229.42854136 -267.11374868 224.19633617 -267.12372971 218.9640522 C-267.13246545 214.0415425 -267.12625814 209.11926252 -267.10904694 204.19677734 C-267.10511688 202.40184343 -267.10615552 200.60688982 -267.11283493 198.81196404 C-267.20749331 170.76554465 -258.59400426 145.61191853 -238.71484375 125.43359375 C-220.57860207 107.33773175 -196.26197635 98.17382101 -170.81164551 98.18475342 C-169.28369052 98.19182843 -167.75573643 98.199098 -166.2277832 98.20654297 C-164.59071357 98.20710816 -162.95364344 98.20678841 -161.3165741 98.20565796 C-156.90409784 98.20508767 -152.49173188 98.21678914 -148.07928109 98.23080587 C-143.45619543 98.24336761 -138.83310681 98.244488 -134.21000671 98.24685669 C-125.46968812 98.25305553 -116.72941997 98.26944462 -107.98912352 98.28955567 C-98.0325958 98.31196451 -88.07606557 98.3229206 -78.11951888 98.33294654 C-57.65126575 98.35381236 -37.18305794 98.38895711 -16.71484375 98.43359375 C-16.7237262 97.33191864 -16.73260864 96.23024353 -16.74176025 95.09518433 C-16.82288468 84.707513 -16.88282776 74.31990603 -16.92209244 63.93198967 C-16.94295755 58.59156963 -16.97125587 53.25140555 -17.01660156 47.91113281 C-17.06009721 42.75641492 -17.08398895 37.60194307 -17.09435272 32.44705582 C-17.10173738 30.48146823 -17.11615795 28.51589394 -17.13776398 26.55041122 C-17.16684728 23.79486862 -17.17079768 21.04033963 -17.16894531 18.28466797 C-17.18332642 17.4740239 -17.19770752 16.66337982 -17.21252441 15.82817078 C-17.17430839 10.56622331 -16.17171374 7.62481244 -12.71484375 3.43359375 C-8.72357323 0.18136783 -4.97423812 -0.02088827 0 0 Z " fill="#05FFF4" transform="translate(504.71484375,209.56640625)"/>
<path d="M0 0 C1.69082199 -0.00639748 1.69082199 -0.00639748 3.415802 -0.01292419 C5.26430252 -0.01224442 5.26430252 -0.01224442 7.15014648 -0.0115509 C9.10185257 -0.01658882 9.10185257 -0.01658882 11.09298706 -0.02172852 C14.65902545 -0.03055694 18.22503984 -0.0329061 21.7910881 -0.0335443 C24.01902262 -0.03425527 26.24695103 -0.03639045 28.47488403 -0.03904152 C36.24717598 -0.04828994 44.01945078 -0.05237689 51.79174805 -0.05158997 C59.03766591 -0.05098877 66.28350942 -0.06155012 73.52940845 -0.07733363 C79.75115974 -0.09040358 85.97288669 -0.09577412 92.1946516 -0.09513456 C95.91040347 -0.09487948 99.6260892 -0.09773627 103.34182739 -0.10831261 C107.48371481 -0.11978055 111.62543512 -0.11525014 115.76733398 -0.10920715 C116.99966766 -0.11482666 118.23200134 -0.12044617 119.50167847 -0.12623596 C120.62889313 -0.12204147 121.75610779 -0.11784698 122.91748047 -0.11352539 C123.8967601 -0.11407016 124.87603973 -0.11461493 125.88499451 -0.1151762 C128.57685344 0.14513467 130.19741538 0.67170973 132.45874023 2.13371277 C133.63025232 4.47673695 133.60362807 5.90794017 133.63574219 8.51994324 C133.65499504 9.88178238 133.65499504 9.88178238 133.67463684 11.27113342 C133.68202377 12.25445648 133.68941071 13.23777954 133.69702148 14.25090027 C133.70509323 15.25960175 133.71316498 16.26830322 133.72148132 17.30757141 C133.73532616 19.44442523 133.74604652 21.58130121 133.75390625 23.71818542 C133.77113444 26.98862972 133.81501921 30.2580673 133.85913086 33.52824402 C133.86925624 35.60245532 133.87777283 37.67667523 133.88452148 39.75090027 C133.90202957 40.73017487 133.91953766 41.70944946 133.93757629 42.71839905 C133.93318794 44.08969467 133.93318794 44.08969467 133.92871094 45.48869324 C133.93457718 46.29096344 133.94044342 47.09323364 133.94648743 47.91981506 C133.26034801 51.03422046 131.91218996 52.13522966 129.45874023 54.13371277 C126.83534908 54.63149071 126.83534908 54.63149071 123.79685974 54.62818909 C122.06600632 54.64077255 122.06600632 54.64077255 120.30018616 54.65361023 C119.03822922 54.64237122 117.77627228 54.6311322 116.47607422 54.61955261 C115.13061148 54.62169902 113.78515055 54.62557754 112.43969727 54.63105774 C108.78883985 54.64074797 105.13847177 54.62545296 101.48767352 54.60515165 C97.66806265 54.5875809 93.8484669 54.59110572 90.02882385 54.59187317 C83.61548679 54.59000043 77.20233906 54.57263916 70.7890625 54.54533386 C63.37156011 54.5138699 55.95426497 54.50333814 48.53670067 54.50480497 C41.40328876 54.50602515 34.26994442 54.49581862 27.13655281 54.47922134 C24.09953344 54.47215578 21.06253798 54.46849487 18.02551079 54.46743393 C14.4508924 54.46542657 10.87644837 54.45322954 7.30188751 54.43310165 C5.36186509 54.42446213 3.42180691 54.42559554 1.48176575 54.42698669 C0.33068329 54.41845673 -0.82039917 54.40992676 -2.00636292 54.40113831 C-3.00868737 54.39778662 -4.01101183 54.39443493 -5.04370975 54.39098167 C-7.54125977 54.13371277 -7.54125977 54.13371277 -10.54125977 52.13371277 C-11.55693108 49.3582466 -11.67145646 46.73247016 -11.68652344 43.79582214 C-11.69290329 42.9481427 -11.69928314 42.10046326 -11.70585632 41.22709656 C-11.70696915 40.31971741 -11.70808197 39.41233826 -11.70922852 38.47746277 C-11.71255692 37.53817932 -11.71588531 36.59889587 -11.71931458 35.63114929 C-11.72437162 33.647471 -11.72672328 31.66378422 -11.7265625 29.68009949 C-11.72875165 26.64496395 -11.74692762 23.6101904 -11.76586914 20.57511902 C-11.76880277 18.64673484 -11.77078777 16.71834894 -11.77172852 14.78996277 C-11.77891403 13.88258362 -11.78609955 12.97520447 -11.79350281 12.04032898 C-11.79042618 11.19264954 -11.78734955 10.34497009 -11.78417969 9.47160339 C-11.78560471 8.72866028 -11.78702972 7.98571716 -11.78849792 7.22026062 C-11.49419474 4.73651101 -10.96337101 3.1968065 -9.54125977 1.13371277 C-6.36652618 0.02657707 -3.34007763 0.00571588 0 0 Z " fill="#103442" transform="translate(353.541259765625,393.8662872314453)"/>
<path d="M0 0 C1.12584 -0.00426498 2.25167999 -0.00852997 3.41163635 -0.01292419 C4.64756531 -0.01247101 5.88349426 -0.01201782 7.15687561 -0.0115509 C9.10836266 -0.01658882 9.10836266 -0.01658882 11.09927368 -0.02172852 C14.66950337 -0.03056803 18.23970911 -0.03290659 21.80994868 -0.0335443 C24.78963333 -0.03449358 27.76931239 -0.03817205 30.74899489 -0.0417164 C37.77818717 -0.0498606 44.80736665 -0.05230065 51.83656311 -0.05158997 C59.08984458 -0.05098901 66.34305172 -0.06154448 73.59631437 -0.07733363 C79.82229174 -0.09040406 86.0482448 -0.09577408 92.27423579 -0.09513456 C95.99335598 -0.09487944 99.71241011 -0.09773797 103.43151665 -0.10831261 C107.5783027 -0.11978133 111.72492187 -0.11524983 115.87171936 -0.10920715 C117.10562408 -0.11482666 118.33952881 -0.12044617 119.61082458 -0.12623596 C121.30381432 -0.11994423 121.30381432 -0.11994423 123.03100586 -0.11352539 C124.50187354 -0.11434254 124.50187354 -0.11434254 126.00245571 -0.1151762 C128.69584519 0.14500031 130.31660919 0.67066542 132.57899475 2.13371277 C133.74133898 4.45840123 133.71754736 5.83904968 133.74012756 8.42814636 C133.74973511 9.31601837 133.75934265 10.20389038 133.76924133 11.1186676 C133.77561615 12.56084152 133.77561615 12.56084152 133.78211975 14.03215027 C133.78781982 15.0186557 133.7935199 16.00516113 133.7993927 17.02156067 C133.80884938 19.11134262 133.81537933 21.20113953 133.81922913 23.29093933 C133.8289343 26.48879503 133.85995142 29.68600802 133.89149475 32.88371277 C133.89802474 34.91235478 133.90327523 36.94100139 133.90711975 38.96965027 C133.91946655 39.92705109 133.93181335 40.8844519 133.9445343 41.87086487 C133.9415332 42.7650412 133.9385321 43.65921753 133.93544006 44.58049011 C133.94090851 45.75724808 133.94090851 45.75724808 133.94648743 46.95777893 C133.46475261 49.81014352 132.58512935 51.05159327 130.57899475 53.13371277 C128.06303406 53.63149071 128.06303406 53.63149071 124.99940491 53.62818909 C123.25799225 53.64077255 123.25799225 53.64077255 121.48139954 53.65361023 C120.20649658 53.64237122 118.93159363 53.6311322 117.61805725 53.61955261 C116.26288995 53.62169832 114.90772444 53.62557579 113.55256653 53.63105774 C109.87066109 53.6407601 106.18923978 53.62543717 102.50739288 53.60515165 C98.65707948 53.58759775 94.80678142 53.59110541 90.95643616 53.59187317 C84.49004505 53.58999947 78.02384153 53.57262651 71.55751038 53.54533386 C64.07811319 53.51388227 56.5989215 53.50333763 49.11946297 53.50480497 C41.92892221 53.50602519 34.73844848 53.49581742 27.54792786 53.47922134 C24.48578875 53.47215478 21.42367336 53.46849472 18.36152649 53.46743393 C14.7565533 53.46542651 11.151753 53.45322895 7.54683685 53.43310165 C5.5901059 53.42446166 3.6333395 53.42559557 1.67658997 53.42698669 C-0.06482269 53.41419174 -0.06482269 53.41419174 -1.84141541 53.40113831 C-2.85241302 53.39778662 -3.86341064 53.39443493 -4.90504456 53.39098167 C-7.42100525 53.13371277 -7.42100525 53.13371277 -10.42100525 51.13371277 C-11.33428626 48.39386975 -11.55625339 46.73423235 -11.58213806 43.90934753 C-11.59174561 43.06159256 -11.60135315 42.21383759 -11.61125183 41.34039307 C-11.61550171 40.42785263 -11.61975159 39.51531219 -11.62413025 38.57511902 C-11.62983032 37.63442062 -11.6355304 36.69372223 -11.6414032 35.72451782 C-11.6508483 33.73486963 -11.65738524 31.74520582 -11.66123962 29.75553894 C-11.67095678 26.71139833 -11.70198946 23.66792963 -11.73350525 20.62394714 C-11.74003433 18.69100845 -11.74528517 16.75806492 -11.74913025 14.82511902 C-11.76147705 13.91460281 -11.77382385 13.00408661 -11.7865448 12.065979 C-11.76440584 5.78887833 -11.76440584 5.78887833 -10.08799744 2.59049988 C-6.98467974 -0.12149437 -3.93237491 0.00672316 0 0 Z " fill="#103442" transform="translate(353.42100524902344,526.8662872314453)"/>
</svg>
